<svg width="13" height="12" viewBox="0 0 13 12" fill="none" xmlns="http://www.w3.org/2000/svg">
<path d="M7.17263 1.58925C7.49807 1.26381 7.49807 0.736171 7.17263 0.410734C6.8472 0.0852972 6.31956 0.0852972 5.99412 0.410734L0.699492 5.70536C0.536774 5.86808 0.536774 6.1319 0.699493 6.29462L5.99412 11.5892C6.31956 11.9147 6.8472 11.9147 7.17263 11.5892C7.49807 11.2638 7.49807 10.7362 7.17263 10.4107L2.76189 5.99999L7.17263 1.58925Z" fill="#333843"/>
<path d="M12.1726 1.58925C12.4981 1.26381 12.4981 0.736171 12.1726 0.410734C11.8472 0.0852972 11.3196 0.0852972 10.9941 0.410734L5.69949 5.70536C5.53677 5.86808 5.53677 6.1319 5.69949 6.29462L10.9941 11.5892C11.3196 11.9147 11.8472 11.9147 12.1726 11.5892C12.4981 11.2638 12.4981 10.7362 12.1726 10.4107L7.76189 5.99999L12.1726 1.58925Z" fill="#333843"/>
</svg>
