<svg width="20" height="20" viewBox="0 0 20 20" fill="none" xmlns="http://www.w3.org/2000/svg">
<path d="M6.66666 10.1667H12.5" stroke="#333843" stroke-width="1.5" stroke-miterlimit="10" stroke-linecap="round" stroke-linejoin="round"/>
<path d="M6.66666 13.5H10.3167" stroke="#333843" stroke-width="1.5" stroke-miterlimit="10" stroke-linecap="round" stroke-linejoin="round"/>
<path d="M8.33332 5H11.6667C13.3333 5 13.3333 4.16666 13.3333 3.33333C13.3333 1.66666 12.5 1.66666 11.6667 1.66666H8.33332C7.49999 1.66666 6.66666 1.66666 6.66666 3.33333C6.66666 5 7.49999 5 8.33332 5Z" stroke="#333843" stroke-width="1.5" stroke-miterlimit="10" stroke-linecap="round" stroke-linejoin="round"/>
<path d="M13.3333 3.35C16.1083 3.5 17.5 4.525 17.5 8.33333V13.3333C17.5 16.6667 16.6667 18.3333 12.5 18.3333H7.5C3.33333 18.3333 2.5 16.6667 2.5 13.3333V8.33333C2.5 4.53333 3.89167 3.5 6.66667 3.35" stroke="#333843" stroke-width="1.5" stroke-miterlimit="10" stroke-linecap="round" stroke-linejoin="round"/>
</svg>
