<svg width="20" height="20" viewBox="0 0 20 20" fill="none" xmlns="http://www.w3.org/2000/svg">
<path d="M1.66666 9.16667V7.5C1.66666 4.58333 3.33332 3.33333 5.83332 3.33333H14.1667C16.6667 3.33333 18.3333 4.58333 18.3333 7.5V12.5C18.3333 15.4167 16.6667 16.6667 14.1667 16.6667H9.99999" stroke="#333843" stroke-width="1.5" stroke-miterlimit="10" stroke-linecap="round" stroke-linejoin="round"/>
<path d="M9.99999 12.0833C11.1506 12.0833 12.0833 11.1506 12.0833 10C12.0833 8.84941 11.1506 7.91667 9.99999 7.91667C8.8494 7.91667 7.91666 8.84941 7.91666 10C7.91666 11.1506 8.8494 12.0833 9.99999 12.0833Z" stroke="#333843" stroke-width="1.5" stroke-miterlimit="10" stroke-linecap="round" stroke-linejoin="round"/>
<path d="M15.4167 7.91667V12.0833" stroke="#333843" stroke-width="1.5" stroke-miterlimit="10" stroke-linecap="round" stroke-linejoin="round"/>
<path d="M1.66666 12.9167H6.11668C6.65001 12.9167 7.08332 13.35 7.08332 13.8833V14.95" stroke="#333843" stroke-width="1.5" stroke-miterlimit="10" stroke-linecap="round" stroke-linejoin="round"/>
<path d="M2.6833 11.9L1.66666 12.9167L2.6833 13.9333" stroke="#333843" stroke-width="1.5" stroke-miterlimit="10" stroke-linecap="round" stroke-linejoin="round"/>
<path d="M7.08332 17.3167H2.6333C2.09997 17.3167 1.66666 16.8833 1.66666 16.35V15.2834" stroke="#333843" stroke-width="1.5" stroke-miterlimit="10" stroke-linecap="round" stroke-linejoin="round"/>
<path d="M6.06769 18.3336L7.08433 17.3169L6.06769 16.3003" stroke="#333843" stroke-width="1.5" stroke-miterlimit="10" stroke-linecap="round" stroke-linejoin="round"/>
</svg>
