<svg width="28" height="28" viewBox="0 0 28 28" fill="none" xmlns="http://www.w3.org/2000/svg">
<path d="M11.6663 7H16.333C18.6663 7 18.6663 5.83334 18.6663 4.66667C18.6663 2.33334 17.4997 2.33334 16.333 2.33334H11.6663C10.4997 2.33334 9.33301 2.33334 9.33301 4.66667C9.33301 7 10.4997 7 11.6663 7Z" stroke="#292D32" stroke-width="1.5" stroke-miterlimit="10" stroke-linecap="round" stroke-linejoin="round"/>
<path d="M18.6667 4.69C22.5517 4.9 24.5 6.335 24.5 11.6667V18.6667C24.5 23.3333 23.3333 25.6667 17.5 25.6667H10.5C4.66667 25.6667 3.5 23.3333 3.5 18.6667V11.6667C3.5 6.34667 5.44833 4.9 9.33333 4.69" fill="#F5BE4A"/>
<path d="M18.6667 4.69C22.5517 4.9 24.5 6.335 24.5 11.6667V18.6667C24.5 23.3333 23.3333 25.6667 17.5 25.6667H10.5C4.66667 25.6667 3.5 23.3333 3.5 18.6667V11.6667C3.5 6.34667 5.44833 4.9 9.33333 4.69" stroke="#292D32" stroke-width="1.5" stroke-miterlimit="10" stroke-linecap="round" stroke-linejoin="round"/>
<path d="M9.33398 14.2333H17.5007" stroke="#292D32" stroke-width="1.5" stroke-miterlimit="10" stroke-linecap="round" stroke-linejoin="round"/>
<path d="M9.33398 18.9H14.444" stroke="#292D32" stroke-width="1.5" stroke-miterlimit="10" stroke-linecap="round" stroke-linejoin="round"/>
</svg>
