<svg width="28" height="28" viewBox="0 0 28 28" fill="none" xmlns="http://www.w3.org/2000/svg">
<path d="M20.9998 8.35334C20.9298 8.34167 20.8481 8.34167 20.7781 8.35334C19.1681 8.29501 17.8848 6.97667 17.8848 5.34334C17.8848 3.675 19.2264 2.33334 20.8948 2.33334C22.5631 2.33334 23.9048 3.68667 23.9048 5.34334C23.8931 6.97667 22.6098 8.29501 20.9998 8.35334Z" fill="white" stroke="#292D32" stroke-width="1.5" stroke-linecap="round" stroke-linejoin="round"/>
<path d="M19.7977 16.8467C21.396 17.115 23.1577 16.835 24.3944 16.0067C26.0394 14.91 26.0394 13.1133 24.3944 12.0167C23.146 11.1883 21.361 10.9083 19.7627 11.1883" stroke="#292D32" stroke-width="1.5" stroke-linecap="round" stroke-linejoin="round"/>
<path d="M6.96457 8.35334C7.03457 8.34167 7.11624 8.34167 7.18624 8.35334C8.79624 8.29501 10.0796 6.97667 10.0796 5.34334C10.0796 3.675 8.73791 2.33334 7.06957 2.33334C5.40124 2.33334 4.05957 3.68667 4.05957 5.34334C4.07124 6.97667 5.35457 8.29501 6.96457 8.35334Z" stroke="#292D32" stroke-width="1.5" stroke-linecap="round" stroke-linejoin="round"/>
<path d="M8.16635 16.8467C6.56802 17.115 4.80635 16.835 3.56969 16.0067C1.92469 14.91 1.92469 13.1133 3.56969 12.0167C4.81802 11.1883 6.60302 10.9083 8.20135 11.1883" stroke="#292D32" stroke-width="1.5" stroke-linecap="round" stroke-linejoin="round"/>
<path d="M13.9998 17.0683C13.9298 17.0567 13.8481 17.0567 13.7781 17.0683C12.1681 17.01 10.8848 15.6917 10.8848 14.0583C10.8848 12.39 12.2264 11.0483 13.8948 11.0483C15.5631 11.0483 16.9048 12.4017 16.9048 14.0583C16.8931 15.6917 15.6098 17.0217 13.9998 17.0683Z" fill="#F5BE4A" stroke="#292D32" stroke-width="1.5" stroke-linecap="round" stroke-linejoin="round"/>
<path d="M10.6048 20.7433C8.95984 21.84 8.95984 23.6367 10.6048 24.7333C12.4715 25.9817 15.5282 25.9817 17.3948 24.7333C19.0398 23.6367 19.0398 21.84 17.3948 20.7433C15.5398 19.5067 12.4715 19.5067 10.6048 20.7433Z" fill="#F5BE4A" stroke="#292D32" stroke-width="1.5" stroke-linecap="round" stroke-linejoin="round"/>
</svg>
