<svg width="28" height="28" viewBox="0 0 28 28" fill="none" xmlns="http://www.w3.org/2000/svg">
<path d="M14 6.48667H25.6667" stroke="#292D32" stroke-width="1.5" stroke-miterlimit="10" stroke-linecap="round" stroke-linejoin="round"/>
<path d="M16.59 2.33333H23.0767C25.1533 2.33333 25.6667 2.84667 25.6667 4.9V9.695C25.6667 11.7483 25.1533 12.2617 23.0767 12.2617H16.59C14.5133 12.2617 14 11.7483 14 9.695V4.9C14 2.84667 14.5133 2.33333 16.59 2.33333Z" stroke="#292D32" stroke-width="1.5" stroke-linecap="round" stroke-linejoin="round"/>
<path d="M4.92338 15.75H11.41C13.4867 15.75 14 16.2633 14 18.3167V23.1117C14 25.165 13.4867 25.6783 11.41 25.6783H4.92338C2.84671 25.6783 2.33337 25.165 2.33337 23.1117V18.3167C2.33337 16.2633 2.84671 15.75 4.92338 15.75Z" fill="#F5BE4A" stroke="#292D32" stroke-width="1.5" stroke-linecap="round" stroke-linejoin="round"/>
<path d="M2.3335 19.9033H14.0002" stroke="#292D32" stroke-width="1.5" stroke-miterlimit="10" stroke-linecap="round" stroke-linejoin="round"/>
<path d="M25.6667 17.5C25.6667 22.015 22.015 25.6667 17.5 25.6667L18.725 23.625" stroke="#292D32" stroke-width="1.5" stroke-linecap="round" stroke-linejoin="round"/>
<path d="M2.33337 10.5C2.33337 5.985 5.98504 2.33333 10.5 2.33333L9.27506 4.375" stroke="#292D32" stroke-width="1.5" stroke-linecap="round" stroke-linejoin="round"/>
</svg>
