<svg width="28" height="28" viewBox="0 0 28 28" fill="none" xmlns="http://www.w3.org/2000/svg">
<path d="M22.5167 9.23998V15.2483C22.5167 18.8417 20.4633 20.3816 17.3833 20.3816H7.12832C6.60332 20.3816 6.10166 20.335 5.63499 20.23C5.34332 20.1834 5.06333 20.1017 4.80667 20.0084C3.05667 19.355 1.995 17.8383 1.995 15.2483V9.23998C1.995 5.64665 4.04832 4.10669 7.12832 4.10669H17.3833C19.9967 4.10669 21.875 5.21502 22.3767 7.74668C22.4583 8.21335 22.5167 8.69165 22.5167 9.23998Z" stroke="#292D32" stroke-width="1.5" stroke-miterlimit="10" stroke-linecap="round" stroke-linejoin="round"/>
<path d="M26.0179 12.7401V18.7485C26.0179 22.3418 23.9646 23.8818 20.8846 23.8818H10.6296C9.76623 23.8818 8.98457 23.7652 8.30791 23.5085C6.91957 22.9952 5.97456 21.9335 5.63623 20.2302C6.1029 20.3352 6.60456 20.3818 7.12956 20.3818H17.3846C20.4646 20.3818 22.5179 18.8418 22.5179 15.2485V9.24012C22.5179 8.69179 22.4712 8.20183 22.3779 7.74683C24.5946 8.21349 26.0179 9.77679 26.0179 12.7401Z" stroke="#292D32" stroke-width="1.5" stroke-miterlimit="10" stroke-linecap="round" stroke-linejoin="round"/>
<path d="M12.2482 15.3299C13.9493 15.3299 15.3282 13.9509 15.3282 12.2499C15.3282 10.5488 13.9493 9.16984 12.2482 9.16984C10.5472 9.16984 9.16821 10.5488 9.16821 12.2499C9.16821 13.9509 10.5472 15.3299 12.2482 15.3299Z" fill="#F5BE4A" stroke="#292D32" stroke-width="1.5" stroke-miterlimit="10" stroke-linecap="round" stroke-linejoin="round"/>
<path d="M5.57666 9.68332V14.8167" stroke="#292D32" stroke-width="1.5" stroke-miterlimit="10" stroke-linecap="round" stroke-linejoin="round"/>
<path d="M18.9253 9.68367V14.817" stroke="#292D32" stroke-width="1.5" stroke-miterlimit="10" stroke-linecap="round" stroke-linejoin="round"/>
</svg>
