<svg width="28" height="28" viewBox="0 0 28 28" fill="none" xmlns="http://www.w3.org/2000/svg">
<path d="M21 8.35333C20.93 8.34167 20.8483 8.34167 20.7783 8.35333C19.1683 8.295 17.885 6.97666 17.885 5.34333C17.885 3.675 19.2267 2.33333 20.895 2.33333C22.5633 2.33333 23.905 3.68666 23.905 5.34333C23.8933 6.97666 22.61 8.295 21 8.35333Z" fill="white" stroke="#292D32" stroke-width="1.5" stroke-linecap="round" stroke-linejoin="round"/>
<path d="M19.7984 16.8467C21.3967 17.115 23.1584 16.835 24.395 16.0067C26.04 14.91 26.04 13.1133 24.395 12.0167C23.1467 11.1883 21.3617 10.9083 19.7634 11.1883" stroke="#292D32" stroke-width="1.5" stroke-linecap="round" stroke-linejoin="round"/>
<path d="M6.965 8.35333C7.035 8.34167 7.11666 8.34167 7.18666 8.35333C8.79666 8.295 10.08 6.97666 10.08 5.34333C10.08 3.675 8.73833 2.33333 7.07 2.33333C5.40167 2.33333 4.06 3.68666 4.06 5.34333C4.07166 6.97666 5.355 8.295 6.965 8.35333Z" stroke="#292D32" stroke-width="1.5" stroke-linecap="round" stroke-linejoin="round"/>
<path d="M8.16666 16.8467C6.56832 17.115 4.80666 16.835 3.56999 16.0067C1.92499 14.91 1.92499 13.1133 3.56999 12.0167C4.81833 11.1883 6.60332 10.9083 8.20166 11.1883" stroke="#292D32" stroke-width="1.5" stroke-linecap="round" stroke-linejoin="round"/>
<path d="M14 17.0683C13.93 17.0567 13.8483 17.0567 13.7783 17.0683C12.1683 17.01 10.885 15.6917 10.885 14.0583C10.885 12.39 12.2267 11.0483 13.895 11.0483C15.5633 11.0483 16.905 12.4017 16.905 14.0583C16.8933 15.6917 15.61 17.0217 14 17.0683Z" fill="#F5BE4A" stroke="#292D32" stroke-width="1.5" stroke-linecap="round" stroke-linejoin="round"/>
<path d="M10.605 20.7433C8.96003 21.84 8.96003 23.6367 10.605 24.7333C12.4717 25.9817 15.5284 25.9817 17.395 24.7333C19.04 23.6367 19.04 21.84 17.395 20.7433C15.54 19.5067 12.4717 19.5067 10.605 20.7433Z" fill="#F5BE4A" stroke="#292D32" stroke-width="1.5" stroke-linecap="round" stroke-linejoin="round"/>
</svg>
