<svg width="28" height="28" viewBox="0 0 28 28" fill="none" xmlns="http://www.w3.org/2000/svg">
<path d="M10.5 25.6667H17.5C23.3334 25.6667 25.6667 23.3333 25.6667 17.5V10.5C25.6667 4.66666 23.3334 2.33333 17.5 2.33333H10.5C4.66671 2.33333 2.33337 4.66666 2.33337 10.5V17.5C2.33337 23.3333 4.66671 25.6667 10.5 25.6667Z" stroke="#292D32" stroke-width="1.5" stroke-linecap="round" stroke-linejoin="round"/>
<path d="M16.743 12.7285C16.6263 13.5568 16.1363 14.2568 15.4596 14.6768V16.9868C15.4596 17.7918 14.8063 18.4451 14.0013 18.4451C13.1963 18.4451 12.5429 17.7918 12.5429 16.9868V14.6768C11.8663 14.2568 11.3763 13.5568 11.2596 12.7285C11.2363 12.6001 11.2246 12.4601 11.2246 12.3201C11.2246 10.5468 12.9046 9.17014 14.748 9.66014C15.6813 9.90514 16.4396 10.6635 16.6846 11.5968C16.7896 11.9818 16.8013 12.3668 16.743 12.7285Z" fill="#F5BE4A" stroke="#292D32" stroke-width="1.5" stroke-miterlimit="10"/>
<path d="M25.6685 12.7285H16.7435" stroke="#292D32" stroke-width="1.5" stroke-miterlimit="10"/>
<path d="M11.2584 12.7283H2.33337" stroke="#292D32" stroke-width="1.5" stroke-miterlimit="10"/>
</svg>
