<svg width="28" height="28" viewBox="0 0 28 28" fill="none" xmlns="http://www.w3.org/2000/svg">
<path d="M24.5929 10.01V17.99C24.5929 19.2967 23.8929 20.51 22.7612 21.1751L15.8312 25.1767C14.6995 25.83 13.2995 25.83 12.1562 25.1767L5.2262 21.1751C4.09453 20.5217 3.39453 19.3083 3.39453 17.99V10.01C3.39453 8.70338 4.09453 7.48999 5.2262 6.82499L12.1562 2.82334C13.2879 2.17 14.6879 2.17 15.8312 2.82334L22.7612 6.82499C23.8929 7.48999 24.5929 8.69171 24.5929 10.01Z" fill="white" stroke="#292D32" stroke-width="1.5" stroke-linecap="round" stroke-linejoin="round"/>
<path d="M14.0015 12.8333C15.5028 12.8333 16.7199 11.6163 16.7199 10.115C16.7199 8.61369 15.5028 7.3967 14.0015 7.3967C12.5002 7.3967 11.2832 8.61369 11.2832 10.115C11.2832 11.6163 12.5002 12.8333 14.0015 12.8333Z" fill="#F5BE4A" stroke="#292D32" stroke-width="1.5" stroke-linecap="round" stroke-linejoin="round"/>
<path d="M18.6673 19.4366C18.6673 17.3366 16.579 15.6334 14.0007 15.6334C11.4223 15.6334 9.33398 17.3366 9.33398 19.4366" fill="#F5BE4A"/>
<path d="M18.6673 19.4366C18.6673 17.3366 16.579 15.6334 14.0007 15.6334C11.4223 15.6334 9.33398 17.3366 9.33398 19.4366" stroke="#292D32" stroke-width="1.5" stroke-linecap="round" stroke-linejoin="round"/>
</svg>
