<svg width="28" height="28" viewBox="0 0 28 28" fill="none" xmlns="http://www.w3.org/2000/svg">
<path d="M12.5435 19.6704V22.0388C12.5435 24.0454 10.6768 25.6671 8.37847 25.6671C6.08014 25.6671 4.20178 24.0454 4.20178 22.0388V19.6704C4.20178 21.6771 6.06847 23.1004 8.37847 23.1004C10.6768 23.1004 12.5435 21.6654 12.5435 19.6704Z" fill="url(#paint0_linear_383_378)" stroke="#292D32" stroke-width="1.5" stroke-linecap="round" stroke-linejoin="round"/>
<path d="M12.5417 16.4616C12.5417 17.045 12.3783 17.5816 12.0983 18.0483C11.41 19.18 9.9983 19.8916 8.36497 19.8916C6.73164 19.8916 5.31996 19.1683 4.63162 18.0483C4.35162 17.5816 4.18835 17.045 4.18835 16.4616C4.18835 15.4583 4.655 14.56 5.40166 13.9066C6.16 13.2416 7.19829 12.845 8.35329 12.845C9.50829 12.845 10.5467 13.2533 11.305 13.9066C12.075 14.5483 12.5417 15.4583 12.5417 16.4616Z" stroke="#292D32" stroke-width="1.5" stroke-linecap="round" stroke-linejoin="round"/>
<path d="M12.5435 16.4617V19.67C12.5435 21.6767 10.6768 23.1 8.37847 23.1C6.08014 23.1 4.20178 21.665 4.20178 19.67V16.4617C4.20178 14.455 6.06847 12.8333 8.37847 12.8333C9.53347 12.8333 10.5718 13.2416 11.3302 13.895C12.0768 14.5483 12.5435 15.4583 12.5435 16.4617Z" stroke="#292D32" stroke-width="1.5" stroke-linecap="round" stroke-linejoin="round"/>
<path d="M25.6667 12.7983V15.2017C25.6667 15.8434 25.1534 16.3683 24.5 16.3917H22.2134C20.9534 16.3917 19.7984 15.47 19.6934 14.21C19.6234 13.475 19.9034 12.7867 20.3934 12.3083C20.825 11.865 21.42 11.6083 22.0734 11.6083H24.5C25.1534 11.6317 25.6667 12.1566 25.6667 12.7983Z" fill="#F5BE4A" stroke="#292D32" stroke-width="1.5" stroke-linecap="round" stroke-linejoin="round"/>
<path d="M2.33337 12.25V9.91667C2.33337 6.74334 4.24671 4.52667 7.22171 4.15333C7.52504 4.10667 7.84004 4.08334 8.16671 4.08334H18.6667C18.97 4.08334 19.2617 4.09499 19.5417 4.14165C22.5517 4.49165 24.5 6.72 24.5 9.91667V11.6083H22.0734C21.42 11.6083 20.825 11.865 20.3934 12.3083C19.9034 12.7867 19.6234 13.475 19.6934 14.21C19.7984 15.47 20.9533 16.3917 22.2133 16.3917H24.5V18.0833C24.5 21.5833 22.1667 23.9167 18.6667 23.9167H15.75" stroke="#292D32" stroke-width="1.5" stroke-linecap="round" stroke-linejoin="round"/>
<defs>
<linearGradient id="paint0_linear_383_378" x1="4.20178" y1="25.6671" x2="9.88602" y2="17.76" gradientUnits="userSpaceOnUse">
<stop stop-color="#FFAE41"/>
<stop offset="1" stop-color="#FFC06A"/>
</linearGradient>
</defs>
</svg>
