<svg width="28" height="28" viewBox="0 0 28 28" fill="none" xmlns="http://www.w3.org/2000/svg">
<path d="M15.1667 13.0084H8.16669" stroke="#292D32" stroke-width="1.5" stroke-linecap="round" stroke-linejoin="round"/>
<path d="M2.33331 13.0084V7.61837C2.33331 5.23837 4.25832 3.31336 6.63832 3.31336H13.195C15.575 3.31336 17.5 4.79503 17.5 7.17503" fill="#F5BE4A"/>
<path d="M2.33331 13.0084V7.61837C2.33331 5.23837 4.25832 3.31336 6.63832 3.31336H13.195C15.575 3.31336 17.5 4.79503 17.5 7.17503" stroke="#292D32" stroke-width="1.5" stroke-linecap="round" stroke-linejoin="round"/>
<path d="M20.3933 14.2333C19.81 14.7933 19.53 15.6567 19.7633 16.5433C20.055 17.6283 21.1283 18.3167 22.2483 18.3167H23.3333V20.0084C23.3333 22.5867 21.245 24.675 18.6666 24.675H6.99998C4.42165 24.675 2.33331 22.5867 2.33331 20.0084V11.8417C2.33331 9.26336 4.42165 7.17503 6.99998 7.17503H18.6666C21.2333 7.17503 23.3333 9.27503 23.3333 11.8417V13.5333H22.0733C21.42 13.5333 20.825 13.79 20.3933 14.2333Z" stroke="#292D32" stroke-width="1.5" stroke-linecap="round" stroke-linejoin="round"/>
<path d="M25.6667 14.7233V17.1267C25.6667 17.78 25.13 18.3167 24.465 18.3167H22.2134C20.9534 18.3167 19.7984 17.395 19.6934 16.135C19.6234 15.4 19.9034 14.7117 20.3934 14.2333C20.825 13.79 21.42 13.5333 22.0734 13.5333H24.465C25.13 13.5333 25.6667 14.07 25.6667 14.7233Z" fill="#F5BE4A" stroke="#292D32" stroke-width="1.5" stroke-linecap="round" stroke-linejoin="round"/>
</svg>
